<svg width="34" height="34" viewBox="0 0 34 34" fill="none" xmlns="http://www.w3.org/2000/svg">
<path d="M2 28.692C2 26.6693 2.79018 24.7296 4.1967 23.2994C5.60322 21.8692 7.51088 21.0657 9.5 21.0657H24.5C26.4891 21.0657 28.3968 21.8692 29.8033 23.2994C31.2098 24.7296 32 26.6693 32 28.692C32 29.7033 31.6049 30.6732 30.9016 31.3883C30.1984 32.1034 29.2446 32.5051 28.25 32.5051H5.75C4.75544 32.5051 3.80161 32.1034 3.09835 31.3883C2.39509 30.6732 2 29.7033 2 28.692Z" stroke="#FF8400" stroke-width="3" stroke-linejoin="round"/>
<path d="M17 13.4394C20.1066 13.4394 22.625 10.8786 22.625 7.71971C22.625 4.5608 20.1066 2 17 2C13.8934 2 11.375 4.5608 11.375 7.71971C11.375 10.8786 13.8934 13.4394 17 13.4394Z" stroke="#FF8400" stroke-width="3"/>
</svg>
