<svg width="36" height="34" viewBox="0 0 36 34" fill="none" xmlns="http://www.w3.org/2000/svg">
<path d="M1.49658 28.692C1.49658 26.6693 2.35535 24.7296 3.88397 23.2994C5.41258 21.8692 7.48583 21.0657 9.64762 21.0657H25.9497C28.1115 21.0657 30.1847 21.8692 31.7134 23.2994C33.242 24.7296 34.1007 26.6693 34.1007 28.692C34.1007 29.7033 33.6714 30.6732 32.9071 31.3883C32.1427 32.1034 31.1061 32.5051 30.0252 32.5051H5.5721C4.49121 32.5051 3.45458 32.1034 2.69027 31.3883C1.92597 30.6732 1.49658 29.7033 1.49658 28.692Z" stroke="#FF8400" stroke-width="3" stroke-linejoin="round"/>
<path d="M17.7988 13.4394C21.1751 13.4394 23.9121 10.8786 23.9121 7.71971C23.9121 4.5608 21.1751 2 17.7988 2C14.4226 2 11.6855 4.5608 11.6855 7.71971C11.6855 10.8786 14.4226 13.4394 17.7988 13.4394Z" stroke="#FF8400" stroke-width="3"/>
</svg>
