<svg width="31" height="24" viewBox="0 0 31 24" fill="none" xmlns="http://www.w3.org/2000/svg">
<path d="M19.4398 5C20.7014 5.19057 21.8608 5.66826 22.7698 6.37194C23.6787 7.07561 24.2957 7.97326 24.5418 8.95L19.4398 5ZM19.4398 1C22.0609 1.22544 24.5051 2.13417 26.3712 3.57701C28.2372 5.01984 29.414 6.91101 29.7085 8.94L19.4398 1ZM28.4168 16.92V19.92C28.4183 20.1985 28.3446 20.4742 28.2005 20.7293C28.0564 20.9845 27.845 21.2136 27.5799 21.4019C27.3149 21.5901 27.0019 21.7335 26.6611 21.8227C26.3204 21.9119 25.9593 21.9451 25.601 21.92C21.6263 21.5856 17.8084 20.5341 14.4539 18.85C11.333 17.3147 8.68707 15.2662 6.70393 12.85C4.52098 10.2412 3.16249 7.27099 2.73851 4.18C2.70623 3.90347 2.74868 3.62476 2.86316 3.36162C2.97763 3.09849 3.16162 2.85669 3.40342 2.65162C3.64521 2.44655 3.93951 2.28271 4.26757 2.17052C4.59564 2.05833 4.95028 2.00026 5.30893 2H9.18393C9.81078 1.99522 10.4185 2.16708 10.8938 2.48353C11.3691 2.79999 11.6795 3.23945 11.7673 3.72C11.9308 4.68007 12.2341 5.62273 12.6714 6.53C12.8452 6.88792 12.8828 7.27691 12.7798 7.65088C12.6768 8.02485 12.4375 8.36811 12.0902 8.64L10.4498 9.91C12.2885 12.4135 14.966 14.4864 18.1998 15.91L19.8402 14.64C20.1914 14.3711 20.6348 14.1858 21.1178 14.1061C21.6008 14.0263 22.1033 14.0555 22.5656 14.19C23.7375 14.5286 24.9551 14.7634 26.1952 14.89C26.8226 14.9585 27.3957 15.2032 27.8053 15.5775C28.2149 15.9518 28.4326 16.4296 28.4168 16.92Z" stroke="white" stroke-linecap="round" stroke-linejoin="round"/>
</svg>
