<svg width="31" height="35" viewBox="0 0 31 35" fill="none" xmlns="http://www.w3.org/2000/svg">
<path d="M27.125 14.5835C27.125 24.7918 15.5 33.5418 15.5 33.5418C15.5 33.5418 3.875 24.7918 3.875 14.5835C3.875 11.1025 5.09977 7.76413 7.27988 5.30272C9.45999 2.8413 12.4169 1.4585 15.5 1.4585C18.5831 1.4585 21.54 2.8413 23.7201 5.30272C25.9002 7.76413 27.125 11.1025 27.125 14.5835Z" stroke="white" stroke-linecap="round" stroke-linejoin="round"/>
<path d="M15.5 18.9585C17.6401 18.9585 19.375 16.9997 19.375 14.5835C19.375 12.1673 17.6401 10.2085 15.5 10.2085C13.3599 10.2085 11.625 12.1673 11.625 14.5835C11.625 16.9997 13.3599 18.9585 15.5 18.9585Z" stroke="white" stroke-linecap="round" stroke-linejoin="round"/>
</svg>
